<svg width="22" height="23" viewBox="0 0 22 23" fill="none" xmlns="http://www.w3.org/2000/svg">
<path d="M0.27665 8.85801C1.60565 14.138 8.86265 21.4 14.1417 22.723C14.8543 22.9036 15.5865 22.9957 16.3217 22.997C17.7187 22.9964 19.0942 22.653 20.3277 21.997C20.7598 21.7713 21.1329 21.4471 21.4167 21.0506C21.7005 20.6542 21.8871 20.1965 21.9614 19.7147C22.0358 19.2328 21.9958 18.7402 21.8447 18.2766C21.6936 17.8131 21.4357 17.3915 21.0917 17.046L19.0057 14.96C18.5635 14.518 17.9984 14.2195 17.3841 14.1033C16.7697 13.9872 16.1347 14.0589 15.5617 14.309C15.015 14.5451 14.5164 14.8797 14.0907 15.296C13.9127 15.473 13.5847 15.501 13.1137 15.373C11.8789 14.8712 10.7571 14.1271 9.81453 13.1847C8.87197 12.2423 8.1277 11.1207 7.62565 9.88601C7.49965 9.41501 7.52565 9.08601 7.70365 8.90901C8.12048 8.48271 8.45538 7.98341 8.69165 7.43601C8.94119 6.86323 9.01255 6.2286 8.89644 5.61471C8.78034 5.00082 8.48214 4.43609 8.04065 3.99401L5.95465 1.90901C5.61309 1.56326 5.19421 1.3037 4.73258 1.15173C4.27095 0.999769 3.77979 0.95976 3.29965 1.03501C2.81406 1.10632 2.35235 1.29191 1.95249 1.5765C1.55264 1.86109 1.22607 2.23656 0.99965 2.67201C-0.00764847 4.57067 -0.265662 6.77824 0.27665 8.85801ZM2.77265 3.60001C2.85428 3.44375 2.97179 3.30908 3.11555 3.20704C3.25931 3.105 3.42521 3.03851 3.59965 3.01301C3.65488 3.00421 3.71073 2.99986 3.76665 3.00001C3.91062 2.99996 4.05316 3.02849 4.18602 3.08393C4.31889 3.13938 4.43942 3.22064 4.54065 3.32301L6.62565 5.40801C6.78245 5.56297 6.88907 5.76146 6.93169 5.97775C6.9743 6.19405 6.95095 6.41815 6.86465 6.62101C6.72809 6.94657 6.53322 7.24445 6.28965 7.50001C5.93197 7.88108 5.68735 8.35414 5.58315 8.86629C5.47896 9.37844 5.51929 9.90947 5.69965 10.4C6.42165 13.1 9.90465 16.579 12.5997 17.3C13.0921 17.48 13.625 17.5192 14.1384 17.4133C14.6519 17.3073 15.1257 17.0603 15.5067 16.7C15.7607 16.4567 16.0569 16.2615 16.3807 16.124C16.5836 16.0375 16.8079 16.014 17.0244 16.0566C17.2409 16.0993 17.4396 16.206 17.5947 16.363L19.6797 18.448C19.8022 18.5693 19.8942 18.7179 19.9481 18.8817C20.002 19.0454 20.0162 19.2197 19.9897 19.39C19.9637 19.5647 19.8965 19.7307 19.7938 19.8743C19.691 20.0179 19.5556 20.135 19.3987 20.216C17.9385 21.0007 16.2342 21.1996 14.6327 20.772C10.0887 19.641 3.35965 12.912 2.21565 8.37001C1.78868 6.76698 1.98783 5.06153 2.77265 3.60001Z" fill="black"/>
</svg>
