<?xml version="1.0" standalone="no"?>
<!DOCTYPE svg PUBLIC "-//W3C//DTD SVG 20010904//EN"
 "http://www.w3.org/TR/2001/REC-SVG-20010904/DTD/svg10.dtd">
<svg version="1.0" xmlns="http://www.w3.org/2000/svg"
 width="114.000000pt" height="137.000000pt" viewBox="0 0 114.000000 137.000000"
 preserveAspectRatio="xMidYMid meet">

<g transform="translate(0.000000,137.000000) scale(0.100000,-0.100000)"
fill="#000000" stroke="none">
<path d="M270 1276 c0 -9 -12 -16 -32 -18 -28 -2 -33 -7 -33 -28 0 -21 -6 -26
-35 -31 -19 -4 -29 -7 -22 -8 7 0 20 -14 30 -31 l19 -30 24 26 c22 24 29 26
91 22 71 -4 108 -24 108 -59 0 -10 5 -21 11 -25 19 -12 -1 37 -43 102 -25 39
-51 66 -74 77 -42 21 -44 21 -44 3z"/>
<path d="M1028 1190 c17 -18 32 -39 32 -48 0 -8 -16 -45 -35 -81 -33 -61 -32
-62 8 -7 8 11 19 16 25 12 21 -12 13 -58 -19 -114 -30 -54 -28 -56 24 -20 l27
19 0 -31 c0 -36 -32 -103 -58 -122 -12 -8 -21 -31 -25 -63 -8 -53 -35 -90 -94
-127 -24 -14 -33 -27 -33 -47 0 -60 -119 -181 -177 -181 -32 0 -33 -1 -33 -45
0 -53 -16 -65 -84 -65 -45 0 -46 1 -71 50 -25 49 -139 205 -168 228 -12 10
-16 9 -20 -7 -4 -17 -9 -18 -48 -10 -95 22 -135 73 -133 170 1 72 37 148 99
214 47 50 105 131 105 147 0 5 -9 4 -20 -2 -13 -7 -39 -8 -66 -4 -35 5 -48 12
-58 33 -8 15 -23 27 -34 28 -20 2 -20 1 -1 -18 23 -23 24 -38 3 -46 -12 -5 -8
-13 20 -42 l36 -37 -50 -97 c-44 -87 -50 -105 -50 -161 0 -73 18 -142 49 -185
21 -29 66 -54 233 -129 64 -29 69 -34 100 -96 22 -45 38 -66 50 -66 24 0 23
-33 -2 -89 -24 -51 -24 -51 -7 -51 6 0 20 19 30 41 11 22 34 55 52 74 26 28
40 35 70 35 28 0 38 5 42 20 3 11 9 20 14 20 20 0 129 -61 129 -72 0 -7 7 -5
18 4 9 9 26 18 37 21 20 5 20 5 0 6 -18 1 -115 87 -115 102 0 2 35 40 78 84
72 74 80 86 97 150 11 39 29 88 42 110 13 22 23 54 23 72 0 17 9 47 19 65 27
46 45 129 30 138 -6 4 -15 42 -20 85 -9 86 -22 112 -71 146 l-33 22 33 -33z"/>
<path d="M270 1143 c8 -3 19 -11 23 -17 6 -7 7 -6 4 4 -2 8 -12 16 -23 17 -13
2 -15 1 -4 -4z"/>
<path d="M865 1050 c-25 -25 -43 -31 -110 -41 -145 -20 -159 -28 -40 -24 61 2
119 5 130 7 29 4 21 -40 -11 -69 -18 -17 -21 -23 -10 -23 38 0 -2 -76 -47 -89
-17 -5 -24 -10 -14 -10 11 -1 17 -9 17 -26 0 -19 -8 -29 -30 -39 -17 -7 -27
-15 -24 -19 9 -9 -34 -71 -60 -88 -12 -8 -50 -17 -86 -20 -61 -7 -60 -7 24 -5
l89 1 63 69 c53 57 64 74 64 103 0 23 9 46 25 65 17 20 25 42 25 68 0 22 5 51
12 66 11 23 10 28 -7 40 -18 13 -18 15 5 39 33 35 21 31 -15 -5z"/>
<path d="M480 1064 c0 -5 10 -27 22 -49 11 -22 24 -51 27 -65 l6 -25 27 28
c23 23 24 27 8 27 -10 0 -21 8 -24 18 -7 21 -66 81 -66 66z"/>
<path d="M242 855 c-84 -92 -91 -188 -18 -255 l27 -25 -25 55 c-14 30 -26 66
-26 80 0 30 42 123 76 167 38 50 22 39 -34 -22z"/>
<path d="M528 739 c-2 -27 -10 -37 -38 -51 -19 -10 -28 -18 -20 -18 20 0 80
37 80 49 0 5 12 14 28 19 l27 10 -25 1 c-15 1 -31 6 -37 12 -9 9 -12 3 -15
-22z"/>
<path d="M935 720 c-3 -5 -1 -10 4 -10 6 0 11 5 11 10 0 6 -2 10 -4 10 -3 0
-8 -4 -11 -10z"/>
<path d="M802 578 c-26 -62 -41 -79 -98 -109 l-39 -20 49 6 c27 3 60 12 72 20
27 18 47 76 42 124 l-3 35 -23 -56z"/>
<path d="M1072 263 c-9 -20 -9 -24 0 -15 7 7 21 12 31 12 16 0 17 3 7 15 -17
21 -23 19 -38 -12z"/>
<path d="M998 213 c7 -3 16 -2 19 1 4 3 -2 6 -13 5 -11 0 -14 -3 -6 -6z"/>
<path d="M958 203 c7 -3 16 -2 19 1 4 3 -2 6 -13 5 -11 0 -14 -3 -6 -6z"/>
<path d="M396 144 c-3 -9 -6 -17 -6 -19 0 -2 23 -6 51 -10 67 -9 84 7 29 29
-51 20 -66 20 -74 0z"/>
<path d="M839 143 c-17 -3 -29 -12 -32 -24 -5 -18 -2 -20 21 -14 25 6 42 21
42 38 0 4 -1 6 -2 6 -2 -1 -15 -4 -29 -6z"/>
<path d="M325 109 c-4 -6 -5 -12 -2 -15 2 -3 7 2 10 11 7 17 1 20 -8 4z"/>
<path d="M644 80 c15 -5 36 -16 46 -25 16 -15 18 -15 24 0 9 25 7 29 -8 16
-10 -9 -16 -8 -26 4 -7 8 -24 15 -39 14 l-26 -1 29 -8z"/>
</g>
</svg>
