<?xml version="1.0" standalone="no"?>
<!DOCTYPE svg PUBLIC "-//W3C//DTD SVG 20010904//EN"
 "http://www.w3.org/TR/2001/REC-SVG-20010904/DTD/svg10.dtd">
<svg version="1.0" xmlns="http://www.w3.org/2000/svg"
 width="85.000000pt" height="86.000000pt" viewBox="0 0 85.000000 86.000000"
 preserveAspectRatio="xMidYMid meet">

<g transform="translate(0.000000,86.000000) scale(0.100000,-0.100000)"
fill="#000000" stroke="none">
<path d="M645 800 c-16 -17 -40 -33 -53 -37 -21 -5 -22 -7 -8 -15 9 -5 16 -16
16 -25 0 -21 56 43 69 80 6 15 9 27 7 27 -1 0 -15 -14 -31 -30z"/>
<path d="M360 781 c-37 -3 -76 -13 -90 -23 -31 -22 -72 -23 -113 -2 l-32 17
23 -25 c13 -14 46 -38 75 -53 45 -25 50 -25 34 -7 -19 20 -16 42 5 42 5 0 21
9 35 20 19 15 42 20 87 21 33 0 70 4 81 9 17 7 15 8 -10 8 -16 -1 -59 -4 -95
-7z"/>
<path d="M673 681 c-47 -25 -51 -30 -39 -46 12 -17 13 -17 27 2 8 11 28 28 44
39 27 17 26 14 -12 -30 -24 -27 -43 -52 -43 -57 0 -4 -8 -6 -17 -4 -10 2 -22
4 -26 4 -5 1 -6 14 -2 30 7 34 -9 71 -30 71 -18 0 -38 -37 -31 -57 4 -9 1 -30
-5 -48 -18 -49 -3 -101 41 -149 l39 -41 3 55 c1 30 1 70 0 88 -2 37 -4 36 35
17 44 -22 88 -9 134 38 91 95 8 156 -118 88z"/>
<path d="M46 638 c-22 -32 -20 -55 9 -84 22 -22 31 -24 99 -22 61 3 77 0 95
-16 21 -19 21 -19 21 2 0 13 6 22 15 22 17 0 20 26 4 36 -6 3 -15 1 -19 -6 -6
-11 -12 -10 -25 4 -9 9 -35 26 -57 37 -54 27 -41 36 16 11 25 -11 54 -18 66
-15 28 7 50 -14 50 -49 0 -22 -6 -31 -21 -35 -20 -6 -21 -10 -16 -78 4 -39 13
-88 22 -108 15 -37 95 -129 95 -109 0 5 -7 15 -15 22 -11 9 -12 16 -4 26 6 7
10 26 9 41 -4 51 0 71 15 86 12 13 12 19 -5 53 -11 21 -19 54 -18 75 1 44 -28
98 -63 118 -23 13 -28 12 -56 -8 l-30 -23 -41 21 c-57 29 -126 28 -146 -1z"/>
<path d="M201 446 c-23 -31 -34 -53 -26 -50 23 9 19 -48 -5 -79 -21 -26 -24
-58 -14 -142 6 -49 7 -50 39 -50 18 0 40 6 49 14 9 7 16 10 16 5 1 -5 7 6 15
24 8 19 20 32 27 30 7 -2 24 -27 38 -56 39 -80 50 -86 50 -24 0 35 -5 54 -15
59 -25 14 -96 173 -110 246 -7 38 -15 70 -18 73 -2 2 -23 -20 -46 -50z"/>
<path d="M413 374 c-6 -16 11 -34 35 -34 18 0 15 13 -8 33 -19 16 -21 16 -27
1z"/>
<path d="M571 369 c-7 -12 -10 -23 -8 -26 3 -3 11 5 17 17 15 28 8 35 -9 9z"/>
<path d="M512 342 c-12 -2 -22 -10 -22 -19 0 -8 -9 -17 -20 -20 -11 -3 -17 -9
-14 -14 8 -14 -15 -49 -33 -49 -9 0 -14 -3 -11 -6 4 -3 27 2 52 10 26 9 70 16
99 16 40 1 48 3 35 11 -10 5 -18 14 -18 19 0 19 -46 55 -68 52z"/>
<path d="M565 210 c-3 -5 -19 -10 -34 -10 -43 0 -70 -28 -80 -82 -9 -52 -1
-56 19 -9 11 27 14 29 33 18 12 -7 29 -17 37 -24 14 -11 15 -8 12 22 -2 18 3
48 11 64 14 29 16 43 2 21z"/>
</g>
</svg>
