<?xml version="1.0" standalone="no"?>
<!DOCTYPE svg PUBLIC "-//W3C//DTD SVG 20010904//EN"
 "http://www.w3.org/TR/2001/REC-SVG-20010904/DTD/svg10.dtd">
<svg version="1.0" xmlns="http://www.w3.org/2000/svg"
 width="85.000000pt" height="108.000000pt" viewBox="0 0 85.000000 108.000000"
 preserveAspectRatio="xMidYMid meet">

<g transform="translate(0.000000,108.000000) scale(0.100000,-0.100000)"
fill="#000000" stroke="none">
<path d="M474 1015 c-7 -41 -4 -60 27 -175 36 -137 14 -191 -94 -226 -71 -22
-187 -95 -232 -145 -43 -48 -71 -106 -81 -167 l-7 -43 -27 26 c-24 23 -28 24
-34 10 -12 -31 -6 -90 11 -115 22 -33 33 -40 64 -40 14 0 36 -11 49 -25 16
-17 34 -25 58 -25 28 0 33 -3 27 -17 -3 -10 -7 -22 -8 -28 -2 -12 171 -26 231
-18 40 5 43 8 38 29 -6 24 -6 24 79 24 89 0 103 8 60 36 -20 13 -30 14 -58 5
-24 -8 -42 -9 -61 -1 -34 13 -26 27 30 52 72 31 96 91 46 113 -30 13 -28 20
16 46 20 12 47 31 59 42 17 15 30 18 62 12 34 -6 41 -4 41 9 0 9 5 16 10 16 6
0 10 13 10 29 0 24 -6 31 -32 40 -24 9 -29 14 -20 23 20 20 14 48 -8 48 -18 0
-19 -3 -10 -20 21 -39 -11 -52 -64 -25 -15 8 -40 15 -55 14 -14 0 -20 -3 -13
-6 23 -9 12 -23 -20 -23 -29 -1 -30 -2 -14 -11 11 -7 42 -9 82 -4 80 8 114 -8
114 -55 0 -29 -13 -40 -25 -20 -12 19 -57 10 -111 -21 -63 -36 -110 -34 -165
7 -40 29 -48 31 -24 4 24 -27 12 -37 -28 -22 -51 18 -58 16 -45 -13 8 -18 8
-32 1 -48 -10 -22 -9 -23 18 -19 22 3 36 -3 59 -26 51 -52 37 -102 -42 -151
-41 -25 -44 -31 -26 -49 9 -9 2 -12 -34 -12 -53 0 -62 8 -49 42 8 22 7 23 -43
20 -68 -5 -93 20 -109 111 -17 103 1 166 71 239 68 72 133 114 213 138 70 21
92 38 110 83 7 18 17 35 23 39 11 7 4 37 -34 143 -23 61 -31 128 -17 141 8 8
61 -48 82 -87 8 -14 19 -63 24 -108 6 -45 13 -86 16 -90 2 -5 24 -13 47 -19
34 -9 47 -19 62 -47 11 -19 22 -33 24 -30 3 3 -9 26 -26 51 l-32 45 21 30 21
30 18 -28 c9 -15 24 -34 32 -41 14 -11 15 -5 10 55 -7 101 -11 107 -78 122
-53 12 -59 12 -71 -5 -7 -10 -13 -26 -13 -36 0 -40 -18 -15 -24 34 -7 54 -31
94 -84 143 -35 33 -40 32 -48 -10z"/>
<path d="M622 618 c6 -18 28 -21 28 -4 0 9 -7 16 -16 16 -9 0 -14 -5 -12 -12z"/>
<path d="M520 573 c0 -5 12 -20 28 -34 l27 -24 -25 30 c-14 17 -26 32 -27 34
-2 2 -3 0 -3 -6z"/>
</g>
</svg>
