<?xml version="1.0" standalone="no"?>
<!DOCTYPE svg PUBLIC "-//W3C//DTD SVG 20010904//EN"
 "http://www.w3.org/TR/2001/REC-SVG-20010904/DTD/svg10.dtd">
<svg version="1.0" xmlns="http://www.w3.org/2000/svg"
 width="106.000000pt" height="90.000000pt" viewBox="0 0 106.000000 90.000000"
 preserveAspectRatio="xMidYMid meet">

<g transform="translate(0.000000,90.000000) scale(0.100000,-0.100000)"
fill="#000000" stroke="none">
<path d="M403 865 c-17 -7 -39 -24 -48 -38 -9 -14 -30 -27 -47 -31 -39 -8 -96
-50 -110 -82 -8 -17 -19 -24 -39 -24 -39 0 -70 -14 -102 -45 -45 -46 -63 -144
-23 -129 8 3 18 14 21 25 10 32 35 49 71 49 l34 0 2 -62 c1 -35 0 -98 -1 -140
-4 -93 19 -142 82 -179 22 -13 56 -41 75 -62 21 -21 53 -42 76 -49 23 -7 47
-20 54 -30 20 -28 70 -50 95 -42 12 3 36 18 52 33 17 15 50 35 75 44 27 10 53
29 65 46 11 17 30 32 42 36 38 9 100 76 114 123 9 33 10 56 2 95 -7 34 -7 61
-1 79 6 16 8 46 6 68 l-4 40 38 0 c33 0 41 -5 63 -40 29 -46 45 -44 45 3 0 64
-73 137 -137 137 -20 0 -36 10 -57 36 -32 40 -82 74 -109 74 -10 0 -29 13 -43
29 -33 39 -82 55 -129 42 -22 -6 -47 -6 -68 0 -42 12 -56 11 -94 -6z m262 -27
c41 -32 31 -41 -33 -34 -50 6 -62 4 -85 -14 -15 -12 -27 -17 -27 -12 0 19 -52
32 -106 26 -61 -8 -69 3 -29 34 22 18 41 20 140 20 99 0 119 -3 140 -20z
m-182 -50 c12 -6 27 -18 34 -27 10 -14 13 -13 30 8 41 51 123 20 123 -46 0
-51 -31 -77 -83 -69 -54 8 -73 8 -120 0 -28 -5 -43 -2 -57 11 -39 35 -32 107
12 125 31 12 36 12 61 -2z m-109 -41 c-8 -50 -3 -43 -36 -51 -23 -5 -30 -2
-43 24 -9 16 -18 30 -21 30 -2 0 3 -14 12 -31 13 -26 13 -33 3 -40 -8 -5 -21
-1 -34 9 -20 17 -20 17 -2 -4 23 -28 12 -36 -24 -16 -31 18 -38 32 -14 32 8 0
12 6 9 13 -3 8 9 25 28 39 39 29 52 34 96 36 l32 1 -6 -42z m347 16 l2 -28 4
27 c4 25 6 26 34 16 34 -12 35 -15 12 -42 -18 -21 -18 -21 5 -2 21 18 23 18
42 1 19 -17 19 -19 2 -31 -15 -12 -15 -12 6 -7 29 7 28 -11 -3 -31 -30 -20
-39 -20 -32 -2 4 10 1 13 -8 9 -9 -3 -18 4 -24 18 -5 13 -10 18 -10 12 -1 -20
-31 -15 -32 5 0 10 -3 12 -6 5 -10 -25 -33 -14 -33 16 0 16 -3 36 -6 45 -5 12
0 16 20 16 21 0 26 -5 27 -27z m-561 -93 c0 -5 7 -7 15 -4 8 4 22 3 31 0 16
-6 16 -8 0 -24 -9 -10 -16 -22 -16 -26 0 -5 8 2 18 14 16 20 21 21 40 9 13 -8
20 -20 17 -29 -4 -8 -3 -11 1 -7 8 7 44 -20 44 -34 0 -4 -8 -10 -17 -12 -14
-4 -12 -5 5 -6 18 -1 22 -7 22 -36 0 -28 -3 -33 -17 -29 -16 5 -16 4 0 -6 18
-11 18 -13 1 -31 -32 -36 -65 -18 -71 38 -3 33 0 41 19 51 22 11 22 11 -4 6
-33 -7 -37 9 -10 40 l17 21 -23 -19 c-22 -19 -23 -19 -36 0 -11 15 -27 19 -73
19 -47 0 -58 3 -61 18 -3 12 9 23 40 37 49 22 58 24 58 10z m202 -20 c-2 -18
2 -40 12 -55 9 -13 16 -34 16 -45 0 -12 11 -31 25 -44 19 -18 25 -33 25 -65 0
-53 23 -99 54 -107 70 -17 112 17 122 101 4 28 15 59 25 70 10 12 22 35 25 53
4 18 11 35 15 38 5 3 9 23 9 45 0 36 2 39 28 39 16 0 37 -9 46 -19 17 -18 16
-21 -13 -62 -39 -53 -43 -121 -10 -164 19 -23 28 -26 63 -23 23 3 49 8 59 12
15 7 17 2 17 -53 0 -72 -16 -110 -63 -145 -48 -36 -55 -33 -50 22 3 26 0 58
-6 72 -8 20 -10 11 -10 -50 -1 -81 -19 -122 -63 -146 -42 -24 -58 -18 -58 20
0 19 -4 37 -8 40 -5 3 -9 -15 -9 -40 0 -35 -6 -51 -28 -74 -38 -40 -77 -40
-116 -1 -24 24 -29 38 -30 78 0 41 -2 44 -10 24 -5 -13 -7 -33 -3 -44 6 -18 3
-19 -27 -13 -67 13 -104 76 -97 166 1 28 0 50 -4 50 -5 0 -8 -29 -8 -65 0 -36
-4 -65 -8 -65 -18 0 -78 53 -94 83 -30 56 -19 172 14 139 21 -21 82 -15 105
11 45 48 41 116 -10 173 l-31 36 23 19 c13 11 35 19 50 19 25 0 27 -3 23 -30z
m562 24 c21 -8 22 -64 1 -64 -8 0 -15 8 -16 18 0 12 -3 11 -10 -7 -5 -14 -15
-21 -23 -18 -9 3 -16 -3 -19 -15 -4 -15 -11 -19 -24 -14 -14 6 -15 4 -6 -5 11
-11 7 -42 -6 -35 -3 2 -4 -15 -3 -38 4 -45 -13 -70 -44 -64 -27 5 -42 36 -24
49 12 9 12 10 -3 5 -15 -5 -18 -1 -15 27 2 25 8 33 28 36 l25 4 -23 6 c-24 6
-23 7 16 51 l40 45 23 -20 c19 -16 21 -16 10 -2 -16 21 -7 33 29 40 14 2 26 5
27 6 1 0 8 -2 17 -5z m-529 -35 c-4 -13 -1 -21 12 -26 10 -4 24 -14 31 -22 10
-14 11 -12 6 12 -5 22 -3 27 12 27 11 0 30 6 44 13 21 10 33 9 71 -3 41 -14
45 -18 38 -38 -5 -13 -4 -22 1 -22 6 0 10 7 10 15 0 8 9 15 21 15 15 0 19 5
17 22 -2 11 3 23 10 25 17 7 15 -42 -3 -57 -8 -7 -15 -25 -15 -40 0 -15 -7
-33 -15 -40 -12 -10 -15 -10 -15 4 0 9 -4 16 -10 16 -6 0 -10 -30 -10 -69 0
-72 -13 -97 -44 -85 -24 9 -20 32 12 59 15 13 24 27 19 31 -4 4 -15 -2 -23
-15 -21 -30 -64 -25 -82 9 l-13 25 3 -25 c2 -15 12 -29 26 -35 25 -11 28 -25
10 -43 -16 -16 -23 -15 -42 4 -11 11 -16 36 -17 82 -1 37 -3 59 -6 49 -7 -26
-26 -16 -37 19 -5 16 -15 41 -23 57 -15 28 -9 72 8 61 5 -3 7 -14 4 -25z m589
-4 c6 -11 17 -24 23 -30 16 -13 31 -81 16 -72 -6 4 -16 20 -23 37 -8 18 -20
30 -31 30 -15 0 -19 7 -19 31 0 34 16 36 34 4z m-920 -34 c7 -10 -25 -71 -36
-71 -11 0 -10 11 3 49 11 31 23 39 33 22z m123 -40 c-3 -14 -1 -18 11 -14 12
5 14 1 8 -21 -4 -18 -3 -25 4 -21 6 4 10 -4 10 -20 0 -15 5 -35 10 -46 16 -28
-3 -23 -30 9 -18 20 -25 41 -27 80 -1 32 2 52 9 52 5 0 8 -9 5 -19z m691 -33
c1 -60 -9 -84 -19 -48 -6 22 -7 20 -8 -11 -1 -22 -7 -39 -15 -42 -12 -5 -13 2
-9 31 3 20 10 42 15 49 5 7 7 17 4 22 -4 5 2 14 11 20 10 6 14 11 10 11 -8 0
0 20 8 20 2 0 3 -23 3 -52z m-310 -175 c-12 -15 -56 -17 -78 -3 -8 5 -12 10
-10 12 33 21 47 24 72 14 21 -8 25 -13 16 -23z"/>
<path d="M331 724 c0 -11 3 -14 6 -6 3 7 2 16 -1 19 -3 4 -6 -2 -5 -13z"/>
<path d="M101 634 c0 -11 3 -14 6 -6 3 7 2 16 -1 19 -3 4 -6 -2 -5 -13z"/>
<path d="M368 444 c-13 -12 -9 -62 7 -100 10 -23 25 -40 45 -47 17 -7 30 -19
30 -28 0 -31 12 -50 42 -65 46 -24 101 2 113 55 3 15 18 33 35 43 36 20 51 54
49 111 -2 32 -3 35 -6 12 -9 -76 -22 -103 -58 -115 -29 -9 -35 -16 -35 -39 0
-56 -70 -81 -110 -41 -11 11 -20 31 -20 45 0 18 -7 26 -25 31 -36 9 -49 31
-55 91 -3 30 -8 51 -12 47z"/>
<path d="M780 606 c0 -2 7 -7 16 -10 8 -3 12 -2 9 4 -6 10 -25 14 -25 6z"/>
</g>
</svg>
