<svg width="100" height="47" viewBox="0 0 100 47" fill="none" xmlns="http://www.w3.org/2000/svg">
<path d="M33.194 27.0612C30.2223 22.2618 28.9361 18.734 26.4326 20.5169C18.0026 26.5185 19.8856 25.9413 17.9711 24.2511C15.642 22.1946 14.7292 23.8098 1.17021 33.7451C0.626623 32.3916 0.230765 30.9616 0 29.478C17.1096 16.9421 15.4301 16.4928 19.679 20.2412C26.862 15.1321 29.1007 12.595 30.7216 15.2106C32.22 17.6296 34.8887 20.4742 33.194 27.0612Z" fill="white"/>
<path d="M32.1487 29.9287C31.6069 31.0905 30.7028 32.4796 29.5842 33.6875L28.737 32.2866C27.9121 30.9208 26.1002 30.5455 24.7999 31.4703C17.0271 37.0006 18.8255 36.5269 16.8052 34.7431C14.6016 32.7979 13.0477 34.8228 5.49649 40.3769C4.52719 39.3901 3.65843 38.3084 2.91406 37.1385C15.877 27.6048 14.5149 27.2124 18.598 30.8092C29.199 23.2625 27.9701 23.0174 32.1487 29.9287ZM38.9263 20.4648C44.2206 37.7529 25.7127 52.4611 10.1209 43.8768C10.1607 42.0266 10.9956 40.3029 12.3821 39.1796C15.7973 40.4895 19.6577 40.7114 23.4255 39.5577C42.0268 33.8616 37.8261 6.25934 18.3861 6.34459C27.4814 5.70284 36.142 11.3749 38.9263 20.4648ZM14.5934 0.293189C15.8541 3.1529 15.7693 3.15123 16.0746 3.11972C17.5798 2.96726 20.1341 2.52531 19.1877 3.37145C16.8573 5.45402 16.8333 5.37307 16.9564 5.65438C17.5672 7.03786 18.7767 9.33066 17.6791 8.69196C14.9789 7.11937 15.0482 7.07105 14.8191 7.27613C13.6914 8.28361 11.8853 10.1426 12.1537 8.90175C12.8149 5.84724 12.8812 5.89847 12.6163 5.74352C11.3095 4.98319 8.98296 3.83868 10.2463 3.71122C13.3554 3.39589 13.3279 3.47558 13.3929 3.17526C13.7125 1.6975 14.0813 -0.868411 14.5934 0.293189Z" fill="white"/>
<path d="M52.7776 17.584C52.7776 17.584 51.9776 15.904 51.1776 14.528C50.4416 13.248 49.7376 12.112 48.2176 12.112C47.1616 12.112 45.9936 12.768 45.8016 13.296C45.6416 13.696 46.6496 13.328 46.7296 15.168C46.7296 15.184 46.6176 23.92 46.6176 23.92C46.6016 24 46.6976 24 46.6976 24H50.0736C50.0736 24 50.1536 24 50.1536 23.92L50.0576 18.592L49.7536 17.104L52.3776 21.92C52.4096 21.984 52.4096 21.984 52.6016 21.984H53.0496C53.1616 21.984 53.2256 21.984 53.2576 21.92C53.2576 21.92 55.5776 17.488 55.7696 17.152L55.4656 18.8L55.4176 23.92C55.4016 24 55.4976 24 55.4976 24H58.7616C58.7616 24 58.8576 24 58.8576 23.92L58.8096 12.656C58.8256 12.576 58.7296 12.576 58.7296 12.576H55.6416C55.6416 12.576 55.5616 12.592 55.5296 12.656L52.7776 17.584ZM69.9267 14.16C69.8307 11.216 66.0707 12.08 66.1027 12.768C66.1027 12.944 66.6467 15.456 65.3027 17.52L63.3347 12.64C63.3027 12.544 63.2227 12.544 63.2227 12.544H59.3827C59.3827 12.544 59.2707 12.576 59.3187 12.672L62.8227 19.2C62.8387 19.952 62.8387 20.528 62.8387 21.6C62.8387 23.584 63.9747 24.368 65.2707 24.368C66.2307 24.368 67.2227 23.68 67.4147 23.104C67.5747 22.656 66.4387 23.2 66.3587 20.672V19.312C67.7827 18.32 69.9267 16.8 69.9267 14.16Z" fill="white"/>
<path d="M56.2336 34.304C56.2336 30.944 53.9616 28.272 50.4736 28.272C47.8496 28.272 46.4096 28.72 46.4096 28.72C46.3936 28.72 46.3296 28.736 46.3296 28.816V39.792C46.3296 39.872 46.3936 39.888 46.4096 39.888C46.4096 39.888 47.8496 40.368 50.4736 40.368C54.2336 40.368 56.2336 37.664 56.2336 34.304ZM49.8496 30.016C51.8656 29.712 52.6976 32.288 52.6976 34.224C52.6976 36.48 51.8336 38.704 49.8496 38.608V30.016ZM66.4612 38.416C65.1012 37.792 64.0292 36.8 63.4212 35.36C65.0212 34.704 65.6612 33.168 65.6612 31.936C65.6612 29.584 63.5972 28.352 61.1332 28.272C58.7172 28.192 56.9252 28.752 56.9252 28.752C56.9252 28.752 56.8452 28.752 56.8452 28.832C56.8452 29.296 56.8452 39.904 56.8452 39.904C56.8452 40 56.9252 40 56.9252 40H60.2852C60.2852 40 60.3492 40 60.3492 39.904C60.3492 39.904 60.3492 37.712 60.3492 35.616H60.8132C61.0372 38.384 62.2372 40.64 64.7492 40.352C66.2692 40.176 66.6212 38.464 66.4612 38.416ZM60.3492 30C61.5492 29.808 62.3332 30.544 62.3332 31.744C62.3332 32.912 61.6292 33.968 60.3492 33.968V30ZM74.2756 37.264C73.1556 37.984 70.1956 38.4 70.1316 36.32C70.1316 36.304 70.1316 35.168 70.1316 35.168H72.7716C72.7716 35.168 72.8676 35.168 72.8676 35.088V33.488C72.8836 33.408 72.7876 33.408 72.7876 33.408H70.1476C70.1476 32.592 70.1636 31.616 70.1636 31.296C70.1636 31.296 72.0676 31.728 73.2356 31.264C75.0756 30.528 74.4516 28.624 74.4516 28.624C74.4196 28.544 74.3236 28.544 74.3236 28.544H66.6916C66.6916 28.544 66.5956 28.544 66.5956 28.624L66.5796 36C66.5796 38.224 67.9396 40.352 70.6756 40.352C73.2836 40.352 74.5316 38.464 74.6596 37.648C74.7236 37.264 74.5956 37.056 74.2756 37.264ZM85.6839 39.92C85.6839 39.92 83.4599 32.512 82.7879 30.624C82.1639 28.88 80.9799 28.112 79.8119 28.112C78.8839 28.112 77.7319 28.592 77.5239 29.216C77.3959 29.584 78.2599 29.616 77.6039 31.296C77.6039 31.312 74.8519 39.92 74.8519 39.92C74.8039 40 74.8839 40 74.8839 40H78.2279C78.2279 40 78.3079 40 78.3399 39.92C78.3399 39.92 78.4999 39.232 78.6919 38.224H81.5239L81.9239 39.92C81.9399 40 82.0199 40 82.0199 40H85.6359C85.6359 40 85.7159 40 85.6839 39.92ZM79.1399 36.064C79.4439 34.608 79.7799 32.592 80.0679 31.424L81.0119 36.064H79.1399ZM92.7151 33.584C92.7151 33.584 91.9151 31.904 91.1151 30.528C90.3791 29.248 89.6751 28.112 88.1551 28.112C87.0991 28.112 85.9311 28.768 85.7391 29.296C85.5791 29.696 86.5871 29.328 86.6671 31.168C86.6671 31.184 86.5551 39.92 86.5551 39.92C86.5391 40 86.6351 40 86.6351 40H90.0111C90.0111 40 90.0911 40 90.0911 39.92L89.9951 34.592L89.6911 33.104L92.3151 37.92C92.3471 37.984 92.3471 37.984 92.5391 37.984H92.9871C93.0991 37.984 93.1631 37.984 93.1951 37.92C93.1951 37.92 95.5151 33.488 95.7071 33.152L95.4031 34.8L95.3551 39.92C95.3391 40 95.4351 40 95.4351 40H98.6991C98.6991 40 98.7951 40 98.7951 39.92L98.7471 28.656C98.7631 28.576 98.6671 28.576 98.6671 28.576H95.5791C95.5791 28.576 95.4991 28.592 95.4671 28.656L92.7151 33.584Z" fill="white"/>
</svg>
