<svg width="172" height="82" viewBox="0 0 172 82" fill="none" xmlns="http://www.w3.org/2000/svg">
<path d="M58.664 47.8293C53.412 39.3473 51.139 33.1125 46.7144 36.2635C31.8161 46.8701 35.144 45.85 31.7604 42.8629C27.6442 39.2285 26.0311 42.0831 2.06812 59.6417C1.10743 57.2497 0.407832 54.7224 0 52.1005C30.238 29.9458 27.2698 29.1517 34.7788 35.7762C47.4734 26.7469 51.4298 22.263 54.2944 26.8856C56.9426 31.1607 61.6589 36.1879 58.664 47.8293Z" fill="#27A9E0"/>
<path d="M56.815 52.8932C55.8575 54.9463 54.2596 57.4014 52.2827 59.536L50.7854 57.0603C49.3275 54.6464 46.1255 53.9832 43.8275 55.6177C30.0905 65.3914 33.2687 64.5542 29.6984 61.4017C25.8038 57.9638 23.0577 61.5426 9.71237 71.3583C7.99933 69.6143 6.46395 67.7027 5.14844 65.6351C28.0579 48.7861 25.6507 48.0927 32.8668 54.4492C51.602 41.1119 49.4301 40.6788 56.815 52.8932ZM68.793 36.1676C78.1496 66.7209 45.4406 92.7147 17.8852 77.5437C17.9554 74.2739 19.4309 71.2275 21.8813 69.2423C27.9171 71.5573 34.7396 71.9494 41.3984 69.9105C74.2725 59.8438 66.8486 11.0622 32.4923 11.2128C48.5664 10.0787 63.8723 20.1029 68.793 36.1676ZM25.7893 0.518155C28.0175 5.57213 27.8675 5.56919 28.4071 5.51349C31.0674 5.24406 35.5815 4.46299 33.9089 5.95837C29.7904 9.63892 29.7479 9.49586 29.9656 9.99301C31.045 12.438 33.1826 16.4901 31.2428 15.3613C26.4708 12.5821 26.5932 12.4967 26.1883 12.8591C24.1953 14.6397 21.0033 17.9251 21.4777 15.7321C22.6462 10.3339 22.7635 10.4244 22.2953 10.1505C19.9857 8.80681 15.874 6.78412 18.1068 6.55885C23.6015 6.00158 23.5529 6.14242 23.6677 5.61165C24.2326 3 24.8844 -1.53475 25.7893 0.518155Z" fill="#39B44A"/>
<path d="M103.772 37.288C103.772 35.188 103.772 34.096 103.772 32.92C103.772 30.12 102.008 28.3 99.908 28.3C98.424 28.3 96.492 29.168 95.344 31.632C94.896 29.56 93.384 28.3 91.62 28.3C90.164 28.3 88.26 29.168 87.112 31.52C86.72 29.504 85.236 28.3 83.276 28.3C81.708 28.3 80.196 29.392 79.916 30.288C79.636 31.044 81.54 30.092 81.54 34.544C81.54 36.476 81.344 42.86 81.344 42.86C81.344 42.972 81.456 43 81.456 43H87.056C87.056 43 87.196 42.972 87.196 42.832C87.196 42.832 87.196 38.52 87.196 35.328C87.196 32.024 89.828 31.044 89.828 33.844C89.828 34.46 89.856 35.16 89.828 35.832C89.8 37.652 89.856 42.86 89.856 42.86C89.828 42.972 89.968 43 89.968 43H95.568C95.568 43 95.708 42.972 95.708 42.832C95.708 42.832 95.484 37.652 95.484 35.832C95.484 35.664 95.484 35.496 95.484 35.328C95.484 32.024 98.116 31.044 98.116 33.844C98.116 35.776 98.116 38.324 98.116 39.276C98.116 41.908 99.992 43.532 102.232 43.532C103.8 43.532 105.312 42.44 105.62 41.572C105.9 40.788 103.772 41.74 103.772 37.288ZM121.351 41.012C121.351 37.288 121.267 29.084 121.267 29.084C121.267 28.944 121.155 28.944 121.155 28.944H115.751C115.751 28.944 115.639 28.944 115.639 29.084C115.639 29.084 115.639 32.416 115.639 36.448C115.583 39.724 112.951 40.704 112.951 37.904C112.951 35.972 112.951 33.592 112.951 32.64C112.951 30.008 111.103 28.384 108.835 28.384C107.267 28.384 105.755 29.476 105.447 30.372C105.195 31.128 107.323 30.176 107.323 34.628C107.323 36.728 107.323 37.652 107.323 38.828C107.323 41.628 109.087 43.448 111.159 43.448C112.643 43.448 114.547 42.608 115.695 40.2C115.695 41.18 115.695 42.132 115.695 43C115.611 44.68 114.323 46.192 112.083 46.192C108.947 46.192 108.135 44.064 107.463 43.952C107.155 43.896 106.875 44.148 107.323 45.52C107.659 46.584 109.535 49.328 113.623 49.328C118.803 49.328 121.519 45.856 121.351 41.012ZM95.652 65.344C95.652 63.412 95.652 50.98 95.652 50.98C95.652 50.868 95.54 50.868 95.54 50.868H89.94C89.94 50.868 89.8 50.868 89.8 51.008C89.8 51.008 89.8 54.704 89.8 59.016C88.932 57.448 87.56 56.356 85.628 56.356C81.932 56.356 80 60.108 80 63.944C80 67.696 81.96 71.588 85.488 71.588C87.448 71.588 88.96 70.244 89.912 68.396C90.304 70.384 91.788 71.588 93.72 71.588C95.288 71.588 96.8 70.496 97.08 69.6C97.36 68.844 95.652 69.796 95.652 65.344ZM87.868 67.724C86.496 67.724 85.74 66.044 85.74 63.944C85.74 61.844 86.496 60.136 87.868 60.136C89.24 60.136 89.968 61.844 89.968 63.944C89.968 66.044 89.24 67.724 87.868 67.724ZM108.404 56.328C107.032 56.328 105.632 57.532 104.876 59.38C104.456 57.448 103 56.328 101.124 56.328C99.5558 56.328 98.0438 57.42 97.7358 58.316C97.4838 59.072 99.3878 58.12 99.3878 62.572C99.3878 64.504 99.1638 70.86 99.1638 70.86C99.1638 71 99.2758 71 99.2758 71H104.904C104.904 71 105.016 71 105.016 70.86C105.016 70.86 105.016 66.604 105.016 63.44C105.016 61.704 105.156 60.276 105.968 60.276C106.388 60.276 106.556 60.64 106.556 61.508C106.556 62.068 106.444 62.264 106.612 62.516C106.696 62.684 107.34 63.076 108.012 63.076C109.916 63.076 111.512 61.788 111.512 59.464C111.512 57.448 110.168 56.328 108.404 56.328ZM126.208 66.66C126.096 66.576 125.956 66.604 125.844 66.688C122.428 68.592 118.704 68.312 117.724 65.512C121.392 66.128 126.516 65.596 126.516 61.2C126.516 59.212 124.528 56.328 119.936 56.328C115.12 56.328 111.956 59.856 111.956 63.944C111.956 68.172 115.344 71.588 119.572 71.588C123.66 71.588 125.984 68.284 126.292 67.108C126.376 66.856 126.32 66.744 126.208 66.66ZM118.956 59.772C119.18 59.632 119.432 59.548 119.628 59.52C119.656 59.52 119.684 59.52 119.712 59.52C119.74 59.52 119.74 59.492 119.74 59.492C120.608 59.436 121.224 60.08 121.224 60.836C121.224 62.348 119.992 63.272 117.5 63.048C117.612 61.676 118.032 60.332 118.956 59.772ZM143.373 65.372C143.373 63.44 143.569 57.056 143.569 57.056C143.569 56.944 143.457 56.916 143.457 56.916H137.857C137.857 56.916 137.717 56.944 137.717 57.084C137.717 57.084 137.717 57.84 137.717 59.016C136.849 57.448 135.477 56.356 133.545 56.356C129.877 56.356 127.917 60.108 127.917 63.944C127.917 67.696 129.877 71.588 133.405 71.588C135.365 71.588 136.877 70.244 137.829 68.424C138.193 70.412 139.705 71.616 141.637 71.616C143.205 71.616 144.717 70.524 144.997 69.628C145.277 68.872 143.373 69.824 143.373 65.372ZM135.785 67.724C134.413 67.724 133.685 66.044 133.685 63.944C133.685 61.844 134.413 60.136 135.785 60.136C137.157 60.136 137.885 61.844 137.885 63.944C137.885 66.044 137.157 67.724 135.785 67.724ZM169.53 65.288C169.53 63.188 169.53 62.096 169.53 60.92C169.53 58.12 167.766 56.3 165.666 56.3C164.182 56.3 162.25 57.168 161.102 59.632C160.654 57.56 159.142 56.3 157.378 56.3C155.922 56.3 154.018 57.168 152.87 59.52C152.478 57.504 150.994 56.3 149.034 56.3C147.466 56.3 145.954 57.392 145.674 58.288C145.394 59.044 147.298 58.092 147.298 62.544C147.298 64.476 147.102 70.86 147.102 70.86C147.102 70.972 147.214 71 147.214 71H152.814C152.814 71 152.954 70.972 152.954 70.832C152.954 70.832 152.954 66.52 152.954 63.328C152.954 60.024 155.586 59.044 155.586 61.844C155.586 62.46 155.614 63.16 155.586 63.832C155.558 65.652 155.614 70.86 155.614 70.86C155.586 70.972 155.726 71 155.726 71H161.326C161.326 71 161.466 70.972 161.466 70.832C161.466 70.832 161.242 65.652 161.242 63.832C161.242 63.664 161.242 63.496 161.242 63.328C161.242 60.024 163.874 59.044 163.874 61.844C163.874 63.776 163.874 66.324 163.874 67.276C163.874 69.908 165.75 71.532 167.99 71.532C169.558 71.532 171.07 70.44 171.378 69.572C171.658 68.788 169.53 69.74 169.53 65.288Z" fill="#292D95"/>
</svg>
