<svg width="172" height="82" viewBox="0 0 172 82" fill="none" xmlns="http://www.w3.org/2000/svg">
<path d="M102.676 26.173L102.924 41.4797C102.924 41.5633 102.882 41.6144 102.8 41.6357H96.7879C96.705 41.6357 96.6647 41.5832 96.6647 41.4797C96.6851 39.6412 96.6952 37.6688 96.6952 35.5617L97.0049 32.2151L93.0698 41.3562C93.0082 41.5216 92.8735 41.6043 92.6664 41.6043H91.8922C91.7278 41.6043 91.6022 41.5216 91.52 41.3562L88.3903 33.4231C88.3903 34.7242 88.3385 35.8098 88.236 36.6777C87.7403 40.3759 86.1387 42.2234 83.433 42.2234C82.5226 42.2234 81.7546 41.9761 81.1244 41.4797C80.494 40.985 80.1797 40.5305 80.1797 40.117C80.1797 39.9723 80.242 39.8223 80.3652 39.668C80.4891 39.5119 80.6484 39.3262 80.8454 39.11C81.0412 38.8928 81.2795 38.4123 81.558 37.6688C81.8368 36.925 82.1116 35.9847 82.3796 34.8481C82.5859 33.9402 82.7251 32.7687 82.7982 31.3322C82.8699 29.8962 82.8858 28.6828 82.8446 27.6916L82.7822 26.2034C82.7822 26.1219 82.8235 26.0694 82.9057 26.0481H89.4128L89.5672 26.173L92.3572 31.967H92.4502L95.4869 26.1418C95.5072 26.0799 95.559 26.0481 95.6422 26.0481H102.582C102.645 26.0481 102.676 26.0908 102.676 26.173ZM159.505 58.7529C159.919 59.5384 160.486 59.9298 161.21 59.9298C161.932 59.9298 162.5 59.5384 162.914 58.7529C163.327 57.9689 163.532 56.967 163.532 55.7467C163.532 54.5288 163.327 53.5215 162.914 52.726C162.5 51.9312 161.932 51.5331 161.21 51.5331C160.486 51.5331 159.919 51.9312 159.505 52.726C159.091 53.5215 158.885 54.5288 158.885 55.7467C158.885 56.967 159.091 57.9689 159.505 58.7529ZM169.607 57.327C169.607 58.4422 169.715 59.3367 169.931 60.0083C170.148 60.6797 170.381 61.0868 170.629 61.2323C170.877 61.3761 171.083 61.5056 171.248 61.619C171.414 61.7324 171.465 61.8725 171.404 62.0369C171.238 62.5746 170.784 63.0754 170.041 63.5404C169.296 64.0047 168.511 64.2368 167.686 64.2368C166.612 64.2368 165.692 63.9224 164.928 63.293C164.163 62.6619 163.677 61.7994 163.471 60.7047C162.252 63.0388 160.621 64.2064 158.575 64.2064C157.336 64.2064 156.24 63.7823 155.291 62.936C154.341 62.0887 153.638 61.036 153.183 59.7752C152.729 58.5154 152.502 57.1726 152.502 55.7467C152.502 53.4744 153.06 51.5079 154.174 49.8439C155.291 48.1812 156.81 47.35 158.73 47.35C160.714 47.35 162.252 48.3311 163.347 50.293V48.1554C163.347 48.0518 163.4 47.99 163.502 47.9689H169.7C169.782 47.99 169.824 48.0428 169.824 48.124C169.679 52.8342 169.607 55.9027 169.607 57.327ZM153.276 49.0849C153.297 50.036 152.997 50.768 152.378 51.2843C151.758 51.8013 151.106 52.1012 150.426 52.1834C149.743 52.2663 149.063 52.2573 148.381 52.1523H148.348V57.2656C148.348 58.3809 148.459 59.2746 148.675 59.946C148.892 60.6173 149.124 61.0254 149.372 61.1702C149.62 61.314 149.831 61.4433 150.007 61.5577C150.183 61.671 150.24 61.8104 150.178 61.9753C149.992 62.5129 149.521 63.013 148.768 63.4781C148.014 63.944 147.223 64.1757 146.397 64.1757C145.138 64.1757 144.105 63.7463 143.298 62.8896C142.493 62.0325 142.09 60.8907 142.09 59.4655V51.9047L138.063 51.8737C138 51.8737 137.97 51.8325 137.97 51.7503L137.907 48.2796V48.0629C137.907 48.0209 137.927 47.9797 137.97 47.9387C139.786 47.5876 141.909 47.4065 144.337 47.3957C146.764 47.3866 148.598 47.4376 149.837 47.5503C151.077 47.6646 152.088 47.7733 152.873 47.8769C153.039 47.8975 153.141 47.9996 153.183 48.1868C153.246 48.4342 153.276 48.734 153.276 49.0849ZM136.667 57.3272C136.667 58.4427 136.776 59.3372 136.993 60.0078C137.21 60.6792 137.447 61.0873 137.705 61.2311C137.963 61.3766 138.175 61.5051 138.341 61.6192C138.506 61.7329 138.559 61.873 138.495 62.0374C138.33 62.5745 137.876 63.0749 137.132 63.5409C136.388 64.0052 135.603 64.2373 134.777 64.2373C133.496 64.2373 132.453 63.8093 131.648 62.9517C130.842 62.0943 130.439 60.9525 130.439 59.5276V57.4209C129.508 58.722 128.116 59.373 126.255 59.373C124.872 59.373 123.777 58.9237 122.972 58.0248C122.166 57.1257 121.762 55.8826 121.762 54.2908C121.762 53.3819 121.68 52.6229 121.515 52.0139C121.35 51.4048 121.158 50.9808 120.942 50.7425C120.724 50.5057 120.507 50.3244 120.291 50.2004C120.074 50.0763 119.908 49.9791 119.796 49.9057C119.681 49.8343 119.646 49.7254 119.686 49.5816C119.873 49.0432 120.337 48.5431 121.081 48.0781C121.825 47.6138 122.609 47.3809 123.436 47.3809C124.738 47.3809 125.822 47.8102 126.69 48.6673C127.557 49.5237 127.991 50.6657 127.991 52.0907V53.9497C127.991 55.1693 128.28 55.8399 128.858 55.9633C129.354 56.088 129.767 55.7889 130.098 55.0655C130.326 54.5693 130.439 53.9801 130.439 53.2987V48.1559C130.439 48.0521 130.49 47.9905 130.594 47.9699H136.792C136.874 47.9905 136.914 48.0415 136.914 48.1245C136.749 52.8344 136.667 55.9015 136.667 57.3272ZM111.599 51.1297C110.669 51.6877 110.133 52.896 109.988 54.7565C111.331 54.8792 112.353 54.7192 113.057 54.2753C113.757 53.8309 114.109 53.1755 114.109 52.3066C114.109 51.8737 113.955 51.512 113.644 51.2227C113.334 50.9349 112.942 50.7994 112.467 50.8208C112.467 50.8421 112.456 50.8512 112.436 50.8512H112.343C112.095 50.8924 111.847 50.9862 111.599 51.1297ZM119.625 58.7531C119.769 58.8567 119.8 59.0218 119.718 59.2481C119.614 59.6203 119.381 60.0647 119.019 60.581C118.659 61.0978 118.184 61.6399 117.595 62.2079C117.007 62.7765 116.236 63.2513 115.286 63.6336C114.337 64.0149 113.334 64.2069 112.281 64.2069C109.946 64.2069 107.958 63.3799 106.316 61.7275C104.673 60.0753 103.853 58.0818 103.853 55.7469C103.853 53.4128 104.673 51.4247 106.316 49.7818C107.958 48.1397 110.081 47.3189 112.684 47.3189C114.998 47.3189 116.79 47.8923 118.061 49.0388C119.33 50.1845 119.966 51.4085 119.966 52.7103C119.966 53.8673 119.651 54.8329 119.019 55.6078C118.39 56.382 117.595 56.9041 116.635 57.1728C115.674 57.4415 114.621 57.6168 113.474 57.699C112.327 57.7817 111.247 57.7102 110.235 57.4833C110.773 58.9899 111.934 59.8576 113.721 60.0861C115.508 60.3123 117.342 59.879 119.223 58.7843C119.367 58.68 119.501 58.6702 119.625 58.7531ZM102.676 48.0938L102.924 63.4005C102.924 63.4842 102.882 63.5352 102.8 63.5566H96.7879C96.705 63.5566 96.6647 63.5038 96.6647 63.4005C96.6851 61.5621 96.6952 59.5897 96.6952 57.4825L97.0049 54.1359L93.0698 63.2771C93.0082 63.4425 92.8735 63.5252 92.6664 63.5252H91.8922C91.7278 63.5252 91.6022 63.4425 91.52 63.2771L88.3903 55.344C88.3903 56.645 88.3385 57.7306 88.236 58.5983C87.7403 62.2965 86.1387 64.144 83.433 64.144C82.5226 64.144 81.7546 63.8967 81.1244 63.4005C80.494 62.9056 80.1797 62.4511 80.1797 62.0379C80.1797 61.8931 80.242 61.7432 80.3652 61.5888C80.4891 61.4325 80.6484 61.247 80.8454 61.0306C81.0412 60.8129 81.2795 60.3332 81.558 59.5897C81.8368 58.8459 82.1116 57.9056 82.3796 56.7689C82.5859 55.861 82.7251 54.6893 82.7982 53.2528C82.8699 51.817 82.8858 50.6036 82.8446 49.6125L82.7822 48.1242C82.7822 48.0428 82.8235 47.9902 82.9057 47.9689H89.4128L89.5672 48.0938L92.3572 53.8879H92.4502L95.4869 48.0617C95.5072 48.0008 95.559 47.9689 95.6422 47.9689H102.582C102.645 47.9689 102.676 48.0116 102.676 48.0938ZM130.005 28.6825C129.426 28.6825 128.945 28.8629 128.565 29.2261C128.182 29.5868 127.991 30.1082 127.991 30.7904C127.991 32.1331 128.683 32.8038 130.067 32.8038H131.059V28.7456C130.604 28.7039 130.252 28.6825 130.005 28.6825ZM137.287 26.1732V41.4495C137.287 41.5317 137.246 41.5844 137.163 41.6041H131.183C131.1 41.6041 131.059 41.553 131.059 41.4495V35.5924C130.913 35.6549 130.78 35.8711 130.655 36.2434C130.532 36.6156 130.418 37.0441 130.315 37.5299C130.211 38.0153 130.036 38.5414 129.789 39.11C129.541 39.678 129.236 40.1987 128.875 40.6745C128.512 41.1503 127.985 41.5425 127.293 41.8514C126.601 42.1621 125.792 42.3174 124.861 42.3174C123.581 42.3174 122.413 41.7479 121.361 40.6127C121.132 40.2819 121.029 40.0601 121.05 39.946C121.07 39.8326 121.215 39.6933 121.485 39.5281C122.724 38.7431 124.128 37.2664 125.698 35.0974C124.562 34.7252 123.647 34.1627 122.956 33.4082C122.264 32.6546 121.918 31.7405 121.918 30.6655C121.918 28.9929 122.687 27.686 124.226 26.7467C125.765 25.8063 127.567 25.3359 129.634 25.3359C130.853 25.3359 132.091 25.3983 133.351 25.5224C134.612 25.6466 135.562 25.77 136.204 25.894L137.163 26.05C137.246 26.05 137.287 26.0903 137.287 26.1732ZM109.957 33.9196C109.957 35.3242 110.174 36.4971 110.607 37.4372C111.041 38.3765 111.681 38.8454 112.529 38.8454C113.417 38.8454 114.068 38.3925 114.481 37.4828C114.894 36.5739 115.101 35.3865 115.101 33.9196C115.101 32.4936 114.884 31.3165 114.45 30.3872C114.017 29.4577 113.375 28.9925 112.529 28.9925C111.662 28.9925 111.017 29.4523 110.592 30.3713C110.168 31.2907 109.957 32.474 109.957 33.9196ZM121.205 33.9196C121.205 36.2954 120.389 38.2936 118.757 39.9151C117.125 41.5373 115.048 42.3473 112.529 42.3473C110.05 42.3473 107.983 41.5322 106.33 39.8991C104.679 38.2676 103.853 36.2748 103.853 33.9196C103.853 31.5641 104.679 29.572 106.33 27.939C107.983 26.3077 110.05 25.4908 112.529 25.4908C115.008 25.4908 117.073 26.3077 118.726 27.939C120.379 29.572 121.205 31.5641 121.205 33.9196Z" fill="#292D95"/>
<path d="M58.664 47.8293C53.412 39.3473 51.139 33.1125 46.7144 36.2635C31.8161 46.8701 35.144 45.85 31.7604 42.8629C27.6442 39.2285 26.0311 42.0831 2.06812 59.6417C1.10743 57.2497 0.407832 54.7224 0 52.1005C30.238 29.9458 27.2698 29.1517 34.7788 35.7762C47.4734 26.7469 51.4298 22.263 54.2944 26.8856C56.9426 31.1607 61.6589 36.1879 58.664 47.8293Z" fill="#27A9E0"/>
<path d="M56.815 52.8932C55.8575 54.9463 54.2596 57.4014 52.2827 59.536L50.7854 57.0603C49.3275 54.6464 46.1255 53.9832 43.8275 55.6177C30.0905 65.3914 33.2687 64.5542 29.6984 61.4017C25.8038 57.9638 23.0577 61.5426 9.71237 71.3583C7.99933 69.6143 6.46395 67.7027 5.14844 65.6351C28.0579 48.7861 25.6507 48.0927 32.8668 54.4492C51.602 41.1119 49.4301 40.6788 56.815 52.8932ZM68.793 36.1676C78.1496 66.7209 45.4406 92.7147 17.8852 77.5437C17.9554 74.2739 19.4309 71.2275 21.8813 69.2423C27.9171 71.5573 34.7396 71.9494 41.3984 69.9105C74.2725 59.8438 66.8486 11.0622 32.4923 11.2128C48.5664 10.0787 63.8723 20.1029 68.793 36.1676ZM25.7893 0.518155C28.0175 5.57213 27.8675 5.56919 28.4071 5.51349C31.0674 5.24406 35.5815 4.46299 33.9089 5.95837C29.7904 9.63892 29.7479 9.49586 29.9656 9.99301C31.045 12.438 33.1826 16.4901 31.2428 15.3613C26.4708 12.5821 26.5932 12.4967 26.1883 12.8591C24.1953 14.6397 21.0033 17.9251 21.4777 15.7321C22.6462 10.3339 22.7635 10.4244 22.2953 10.1505C19.9857 8.80681 15.874 6.78412 18.1068 6.55885C23.6015 6.00158 23.5529 6.14242 23.6677 5.61165C24.2326 3 24.8844 -1.53475 25.7893 0.518155Z" fill="#39B44A"/>
</svg>
