<svg width="93" height="47" viewBox="0 0 93 47" fill="none" xmlns="http://www.w3.org/2000/svg">
<path d="M33.194 27.0612C30.2223 22.2618 28.9361 18.734 26.4326 20.5169C18.0026 26.5185 19.8856 25.9413 17.9711 24.2511C15.642 22.1946 14.7292 23.8098 1.17021 33.7451C0.626623 32.3916 0.230765 30.9616 0 29.478C17.1096 16.9421 15.4301 16.4928 19.679 20.2412C26.862 15.1321 29.1007 12.595 30.7216 15.2106C32.22 17.6296 34.8887 20.4742 33.194 27.0612Z" fill="#27A9E0"/>
<path d="M32.1487 29.9287C31.6069 31.0905 30.7028 32.4796 29.5842 33.6875L28.737 32.2866C27.9121 30.9208 26.1002 30.5455 24.7999 31.4703C17.0271 37.0006 18.8255 36.5269 16.8052 34.7431C14.6016 32.7979 13.0477 34.8228 5.49649 40.3769C4.52719 39.3901 3.65843 38.3084 2.91406 37.1385C15.877 27.6048 14.5149 27.2124 18.598 30.8092C29.199 23.2625 27.9701 23.0174 32.1487 29.9287ZM38.9263 20.4648C44.2206 37.7529 25.7127 52.4611 10.1209 43.8768C10.1607 42.0266 10.9956 40.3029 12.3821 39.1796C15.7973 40.4895 19.6577 40.7114 23.4255 39.5577C42.0268 33.8616 37.8261 6.25934 18.3861 6.34459C27.4814 5.70284 36.142 11.3749 38.9263 20.4648ZM14.5934 0.293189C15.8541 3.1529 15.7693 3.15123 16.0746 3.11972C17.5798 2.96726 20.1341 2.52531 19.1877 3.37145C16.8573 5.45402 16.8333 5.37307 16.9564 5.65438C17.5672 7.03786 18.7767 9.33066 17.6791 8.69196C14.9789 7.11937 15.0482 7.07105 14.8191 7.27613C13.6914 8.28361 11.8853 10.1426 12.1537 8.90175C12.8149 5.84724 12.8812 5.89847 12.6163 5.74352C11.3095 4.98319 8.98296 3.83868 10.2463 3.71122C13.3554 3.39589 13.3279 3.47558 13.3929 3.17526C13.7125 1.6975 14.0813 -0.868411 14.5934 0.293189Z" fill="#39B44A"/>
<path d="M51.9116 19.386C51.9116 19.386 51.2116 17.916 50.5116 16.712C49.8676 15.592 49.2516 14.598 47.9216 14.598C46.9976 14.598 45.9756 15.172 45.8076 15.634C45.6676 15.984 46.5496 15.662 46.6196 17.272C46.6196 17.286 46.5216 24.93 46.5216 24.93C46.5076 25 46.5916 25 46.5916 25H49.5456C49.5456 25 49.6156 25 49.6156 24.93L49.5316 20.268L49.2656 18.966L51.5616 23.18C51.5896 23.236 51.5896 23.236 51.7576 23.236H52.1496C52.2476 23.236 52.3036 23.236 52.3316 23.18C52.3316 23.18 54.3616 19.302 54.5296 19.008L54.2636 20.45L54.2216 24.93C54.2076 25 54.2916 25 54.2916 25H57.1476C57.1476 25 57.2316 25 57.2316 24.93L57.1896 15.074C57.2036 15.004 57.1196 15.004 57.1196 15.004H54.4176C54.4176 15.004 54.3476 15.018 54.3196 15.074L51.9116 19.386ZM66.9171 16.39C66.8331 13.814 63.5431 14.57 63.5711 15.172C63.5711 15.326 64.0471 17.524 62.8711 19.33L61.1491 15.06C61.1211 14.976 61.0511 14.976 61.0511 14.976H57.6911C57.6911 14.976 57.5931 15.004 57.6351 15.088L60.7011 20.8C60.7151 21.458 60.7151 21.962 60.7151 22.9C60.7151 24.636 61.7091 25.322 62.8431 25.322C63.6831 25.322 64.5511 24.72 64.7191 24.216C64.8591 23.824 63.8651 24.3 63.7951 22.088V20.898C65.0411 20.03 66.9171 18.7 66.9171 16.39Z" fill="#292D95"/>
<path d="M54.9356 34.016C54.9356 31.076 52.9476 28.738 49.8956 28.738C47.5996 28.738 46.3396 29.13 46.3396 29.13C46.3256 29.13 46.2696 29.144 46.2696 29.214V38.818C46.2696 38.888 46.3256 38.902 46.3396 38.902C46.3396 38.902 47.5996 39.322 49.8956 39.322C53.1856 39.322 54.9356 36.956 54.9356 34.016ZM49.3496 30.264C51.1136 29.998 51.8416 32.252 51.8416 33.946C51.8416 35.92 51.0856 37.866 49.3496 37.782V30.264ZM63.8848 37.614C62.6948 37.068 61.7568 36.2 61.2248 34.94C62.6248 34.366 63.1848 33.022 63.1848 31.944C63.1848 29.886 61.3788 28.808 59.2228 28.738C57.1088 28.668 55.5408 29.158 55.5408 29.158C55.5408 29.158 55.4708 29.158 55.4708 29.228C55.4708 29.634 55.4708 38.916 55.4708 38.916C55.4708 39 55.5408 39 55.5408 39H58.4808C58.4808 39 58.5368 39 58.5368 38.916C58.5368 38.916 58.5368 36.998 58.5368 35.164H58.9428C59.1388 37.586 60.1888 39.56 62.3868 39.308C63.7168 39.154 64.0248 37.656 63.8848 37.614ZM58.5368 30.25C59.5868 30.082 60.2728 30.726 60.2728 31.776C60.2728 32.798 59.6568 33.722 58.5368 33.722V30.25ZM70.7224 36.606C69.7424 37.236 67.1524 37.6 67.0964 35.78C67.0964 35.766 67.0964 34.772 67.0964 34.772H69.4064C69.4064 34.772 69.4904 34.772 69.4904 34.702V33.302C69.5044 33.232 69.4204 33.232 69.4204 33.232H67.1104C67.1104 32.518 67.1244 31.664 67.1244 31.384C67.1244 31.384 68.7904 31.762 69.8124 31.356C71.4224 30.712 70.8764 29.046 70.8764 29.046C70.8484 28.976 70.7644 28.976 70.7644 28.976H64.0864C64.0864 28.976 64.0024 28.976 64.0024 29.046L63.9884 35.5C63.9884 37.446 65.1784 39.308 67.5724 39.308C69.8544 39.308 70.9464 37.656 71.0584 36.942C71.1144 36.606 71.0024 36.424 70.7224 36.606ZM80.7046 38.93C80.7046 38.93 78.7586 32.448 78.1706 30.796C77.6246 29.27 76.5886 28.598 75.5666 28.598C74.7546 28.598 73.7466 29.018 73.5646 29.564C73.4526 29.886 74.2086 29.914 73.6346 31.384C73.6346 31.398 71.2266 38.93 71.2266 38.93C71.1846 39 71.2546 39 71.2546 39H74.1806C74.1806 39 74.2506 39 74.2786 38.93C74.2786 38.93 74.4186 38.328 74.5866 37.446H77.0646L77.4146 38.93C77.4286 39 77.4986 39 77.4986 39H80.6626C80.6626 39 80.7326 39 80.7046 38.93ZM74.9786 35.556C75.2446 34.282 75.5386 32.518 75.7906 31.496L76.6166 35.556H74.9786ZM86.8569 33.386C86.8569 33.386 86.1569 31.916 85.4569 30.712C84.8129 29.592 84.1969 28.598 82.8669 28.598C81.9429 28.598 80.9209 29.172 80.7529 29.634C80.6129 29.984 81.4949 29.662 81.5649 31.272C81.5649 31.286 81.4669 38.93 81.4669 38.93C81.4529 39 81.5369 39 81.5369 39H84.4909C84.4909 39 84.5609 39 84.5609 38.93L84.4769 34.268L84.2109 32.966L86.5069 37.18C86.5349 37.236 86.5349 37.236 86.7029 37.236H87.0949C87.1929 37.236 87.2489 37.236 87.2769 37.18C87.2769 37.18 89.3069 33.302 89.4749 33.008L89.2089 34.45L89.1669 38.93C89.1529 39 89.2369 39 89.2369 39H92.0929C92.0929 39 92.1769 39 92.1769 38.93L92.1349 29.074C92.1489 29.004 92.0649 29.004 92.0649 29.004H89.3629C89.3629 29.004 89.2929 29.018 89.2649 29.074L86.8569 33.386Z" fill="#292D95"/>
</svg>
