<svg width="92" height="47" viewBox="0 0 92 47" fill="none" xmlns="http://www.w3.org/2000/svg">
<path d="M33.194 27.0612C30.2223 22.2618 28.9361 18.734 26.4326 20.5169C18.0026 26.5185 19.8856 25.9413 17.9711 24.2511C15.642 22.1946 14.7292 23.8098 1.17021 33.7451C0.626623 32.3916 0.230765 30.9616 0 29.478C17.1096 16.9421 15.4301 16.4928 19.679 20.2412C26.862 15.1321 29.1007 12.595 30.7216 15.2106C32.22 17.6296 34.8887 20.4742 33.194 27.0612Z" fill="#27A9E0"/>
<path d="M32.1487 29.9287C31.6069 31.0905 30.7028 32.4796 29.5842 33.6875L28.737 32.2866C27.9121 30.9208 26.1002 30.5455 24.7999 31.4703C17.0271 37.0006 18.8255 36.5269 16.8052 34.7431C14.6016 32.7979 13.0477 34.8228 5.49649 40.3769C4.52719 39.3901 3.65843 38.3084 2.91406 37.1385C15.877 27.6048 14.5149 27.2124 18.598 30.8092C29.199 23.2625 27.9701 23.0174 32.1487 29.9287ZM38.9263 20.4648C44.2206 37.7529 25.7127 52.4611 10.1209 43.8768C10.1607 42.0266 10.9956 40.3029 12.3821 39.1796C15.7973 40.4895 19.6577 40.7114 23.4255 39.5577C42.0268 33.8616 37.8261 6.25934 18.3861 6.34459C27.4814 5.70284 36.142 11.3749 38.9263 20.4648ZM14.5934 0.293189C15.8541 3.1529 15.7693 3.15123 16.0746 3.11972C17.5798 2.96726 20.1341 2.52531 19.1877 3.37145C16.8573 5.45402 16.8333 5.37307 16.9564 5.65438C17.5672 7.03786 18.7767 9.33066 17.6791 8.69196C14.9789 7.11937 15.0482 7.07105 14.8191 7.27613C13.6914 8.28361 11.8853 10.1426 12.1537 8.90175C12.8149 5.84724 12.8812 5.89847 12.6163 5.74352C11.3095 4.98319 8.98296 3.83868 10.2463 3.71122C13.3554 3.39589 13.3279 3.47558 13.3929 3.17526C13.7125 1.6975 14.0813 -0.868411 14.5934 0.293189Z" fill="#39B44A"/>
<path d="M57.7356 22.144C57.7356 21.094 57.7356 20.548 57.7356 19.96C57.7356 18.56 56.8536 17.65 55.8036 17.65C55.0616 17.65 54.0956 18.084 53.5216 19.316C53.2976 18.28 52.5416 17.65 51.6596 17.65C50.9316 17.65 49.9796 18.084 49.4056 19.26C49.2096 18.252 48.4676 17.65 47.4876 17.65C46.7036 17.65 45.9476 18.196 45.8076 18.644C45.6676 19.022 46.6196 18.546 46.6196 20.772C46.6196 21.738 46.5216 24.93 46.5216 24.93C46.5216 24.986 46.5776 25 46.5776 25H49.3776C49.3776 25 49.4476 24.986 49.4476 24.916C49.4476 24.916 49.4476 22.76 49.4476 21.164C49.4476 19.512 50.7636 19.022 50.7636 20.422C50.7636 20.73 50.7776 21.08 50.7636 21.416C50.7496 22.326 50.7776 24.93 50.7776 24.93C50.7636 24.986 50.8336 25 50.8336 25H53.6336C53.6336 25 53.7036 24.986 53.7036 24.916C53.7036 24.916 53.5916 22.326 53.5916 21.416C53.5916 21.332 53.5916 21.248 53.5916 21.164C53.5916 19.512 54.9076 19.022 54.9076 20.422C54.9076 21.388 54.9076 22.662 54.9076 23.138C54.9076 24.454 55.8456 25.266 56.9656 25.266C57.7496 25.266 58.5056 24.72 58.6596 24.286C58.7996 23.894 57.7356 24.37 57.7356 22.144ZM66.525 24.006C66.525 22.144 66.483 18.042 66.483 18.042C66.483 17.972 66.427 17.972 66.427 17.972H63.725C63.725 17.972 63.669 17.972 63.669 18.042C63.669 18.042 63.669 19.708 63.669 21.724C63.641 23.362 62.325 23.852 62.325 22.452C62.325 21.486 62.325 20.296 62.325 19.82C62.325 18.504 61.401 17.692 60.267 17.692C59.483 17.692 58.727 18.238 58.573 18.686C58.447 19.064 59.511 18.588 59.511 20.814C59.511 21.864 59.511 22.326 59.511 22.914C59.511 24.314 60.393 25.224 61.429 25.224C62.171 25.224 63.123 24.804 63.697 23.6C63.697 24.09 63.697 24.566 63.697 25C63.655 25.84 63.011 26.596 61.891 26.596C60.323 26.596 59.917 25.532 59.581 25.476C59.427 25.448 59.287 25.574 59.511 26.26C59.679 26.792 60.617 28.164 62.661 28.164C65.251 28.164 66.609 26.428 66.525 24.006Z" fill="#292D95"/>
<path d="M53.6756 34.172C53.6756 33.206 53.6756 26.99 53.6756 26.99C53.6756 26.934 53.6196 26.934 53.6196 26.934H50.8196C50.8196 26.934 50.7496 26.934 50.7496 27.004C50.7496 27.004 50.7496 28.852 50.7496 31.008C50.3156 30.224 49.6296 29.678 48.6636 29.678C46.8156 29.678 45.8496 31.554 45.8496 33.472C45.8496 35.348 46.8296 37.294 48.5936 37.294C49.5736 37.294 50.3296 36.622 50.8056 35.698C51.0016 36.692 51.7436 37.294 52.7096 37.294C53.4936 37.294 54.2496 36.748 54.3896 36.3C54.5296 35.922 53.6756 36.398 53.6756 34.172ZM49.7836 35.362C49.0976 35.362 48.7196 34.522 48.7196 33.472C48.7196 32.422 49.0976 31.568 49.7836 31.568C50.4696 31.568 50.8336 32.422 50.8336 33.472C50.8336 34.522 50.4696 35.362 49.7836 35.362ZM60.0515 29.664C59.3655 29.664 58.6655 30.266 58.2875 31.19C58.0775 30.224 57.3495 29.664 56.4115 29.664C55.6275 29.664 54.8715 30.21 54.7175 30.658C54.5915 31.036 55.5435 30.56 55.5435 32.786C55.5435 33.752 55.4315 36.93 55.4315 36.93C55.4315 37 55.4875 37 55.4875 37H58.3015C58.3015 37 58.3575 37 58.3575 36.93C58.3575 36.93 58.3575 34.802 58.3575 33.22C58.3575 32.352 58.4275 31.638 58.8335 31.638C59.0435 31.638 59.1275 31.82 59.1275 32.254C59.1275 32.534 59.0715 32.632 59.1555 32.758C59.1975 32.842 59.5195 33.038 59.8555 33.038C60.8075 33.038 61.6055 32.394 61.6055 31.232C61.6055 30.224 60.9335 29.664 60.0515 29.664ZM68.9537 34.83C68.8977 34.788 68.8277 34.802 68.7717 34.844C67.0637 35.796 65.2017 35.656 64.7117 34.256C66.5457 34.564 69.1077 34.298 69.1077 32.1C69.1077 31.106 68.1137 29.664 65.8177 29.664C63.4097 29.664 61.8277 31.428 61.8277 33.472C61.8277 35.586 63.5217 37.294 65.6357 37.294C67.6797 37.294 68.8417 35.642 68.9957 35.054C69.0377 34.928 69.0097 34.872 68.9537 34.83ZM65.3277 31.386C65.4397 31.316 65.5657 31.274 65.6637 31.26C65.6777 31.26 65.6917 31.26 65.7057 31.26C65.7197 31.26 65.7197 31.246 65.7197 31.246C66.1537 31.218 66.4617 31.54 66.4617 31.918C66.4617 32.674 65.8457 33.136 64.5997 33.024C64.6557 32.338 64.8657 31.666 65.3277 31.386ZM77.5362 34.186C77.5362 33.22 77.6342 30.028 77.6342 30.028C77.6342 29.972 77.5782 29.958 77.5782 29.958H74.7782C74.7782 29.958 74.7082 29.972 74.7082 30.042C74.7082 30.042 74.7082 30.42 74.7082 31.008C74.2742 30.224 73.5882 29.678 72.6222 29.678C70.7882 29.678 69.8082 31.554 69.8082 33.472C69.8082 35.348 70.7882 37.294 72.5522 37.294C73.5322 37.294 74.2882 36.622 74.7642 35.712C74.9462 36.706 75.7022 37.308 76.6682 37.308C77.4522 37.308 78.2082 36.762 78.3482 36.314C78.4882 35.936 77.5362 36.412 77.5362 34.186ZM73.7422 35.362C73.0562 35.362 72.6922 34.522 72.6922 33.472C72.6922 32.422 73.0562 31.568 73.7422 31.568C74.4282 31.568 74.7922 32.422 74.7922 33.472C74.7922 34.522 74.4282 35.362 73.7422 35.362ZM90.6148 34.144C90.6148 33.094 90.6148 32.548 90.6148 31.96C90.6148 30.56 89.7328 29.65 88.6828 29.65C87.9408 29.65 86.9748 30.084 86.4008 31.316C86.1768 30.28 85.4208 29.65 84.5388 29.65C83.8108 29.65 82.8588 30.084 82.2848 31.26C82.0888 30.252 81.3468 29.65 80.3668 29.65C79.5828 29.65 78.8268 30.196 78.6868 30.644C78.5468 31.022 79.4988 30.546 79.4988 32.772C79.4988 33.738 79.4008 36.93 79.4008 36.93C79.4008 36.986 79.4568 37 79.4568 37H82.2568C82.2568 37 82.3268 36.986 82.3268 36.916C82.3268 36.916 82.3268 34.76 82.3268 33.164C82.3268 31.512 83.6428 31.022 83.6428 32.422C83.6428 32.73 83.6568 33.08 83.6428 33.416C83.6288 34.326 83.6568 36.93 83.6568 36.93C83.6428 36.986 83.7128 37 83.7128 37H86.5128C86.5128 37 86.5828 36.986 86.5828 36.916C86.5828 36.916 86.4708 34.326 86.4708 33.416C86.4708 33.332 86.4708 33.248 86.4708 33.164C86.4708 31.512 87.7868 31.022 87.7868 32.422C87.7868 33.388 87.7868 34.662 87.7868 35.138C87.7868 36.454 88.7248 37.266 89.8448 37.266C90.6288 37.266 91.3848 36.72 91.5388 36.286C91.6788 35.894 90.6148 36.37 90.6148 34.144Z" fill="#292D95"/>
</svg>
